<svg version="1.1" xmlns="http://www.w3.org/2000/svg" xmlns:xlink="http://www.w3.org/1999/xlink" width="400" height="400">
  <g transform="scale(1,1)">
    <g id="expressions-1b2d06f1">
      <g id="sketch-1b2d06f1">
        <path fill="#519aba" stroke="none" class="dcg-svg-region" paint-order="stroke fill markers" d=" M 215.12657705276817 191.26666666666665 L 267.5265770527682 100.50720435005749 L 372.3265770527682 100.50720435005749 L 319.92657705276815 191.26666666666665 L 215.12657705276817 191.26666666666665 L 215.12657705276817 191.26666666666665"/>
        <path fill="#519aba" stroke="none" class="dcg-svg-region" paint-order="stroke fill markers" d=" M 215.12657705276817 208.73333333333332 L 319.92657705276815 208.73333333333332 L 372.3265770527682 299.49279564994254 L 267.5265770527682 299.49279564994254 L 215.12657705276817 208.73333333333332 L 215.12657705276817 208.73333333333332"/>
        <path fill="#519aba" stroke="none" class="dcg-svg-region" paint-order="stroke fill markers" d=" M 199.99999999999997 217.46666666666667 L 252.39999999999998 308.2261289832758 L 199.99999999999994 398.985591299885 L 147.59999999999997 308.2261289832758 L 199.99999999999997 217.46666666666667 L 199.99999999999997 217.46666666666667"/>
        <path fill="#519aba" stroke="none" class="dcg-svg-region" paint-order="stroke fill markers" d=" M 184.87342294723177 208.73333333333335 L 132.47342294723177 299.49279564994254 L 27.673422947231757 299.49279564994254 L 80.07342294723176 208.73333333333335 L 184.87342294723177 208.73333333333335 L 184.87342294723177 208.73333333333335"/>
        <path fill="#519aba" stroke="none" class="dcg-svg-region" paint-order="stroke fill markers" d=" M 184.87342294723177 191.26666666666665 L 80.07342294723176 191.26666666666665 L 27.673422947231728 100.50720435005752 L 132.4734229472317 100.50720435005752 L 184.87342294723177 191.26666666666665 L 184.87342294723177 191.26666666666665"/>
        <path fill="#519aba" stroke="none" class="dcg-svg-region" paint-order="stroke fill markers" d=" M 199.99999999999997 182.53333333333333 L 147.5999999999999 91.77387101672417 L 199.99999999999986 1.0144087001149842 L 252.3999999999999 91.7738710167241 L 199.99999999999997 182.53333333333333 L 199.99999999999997 182.53333333333333"/>
      </g>
    </g>
  </g>
</svg>